<?xml version="1.0" encoding="iso-8859-1"?>
<!-- Generator: Adobe Illustrator 18.0.0, SVG Export Plug-In . SVG Version: 6.00 Build 0)  -->
<!DOCTYPE svg PUBLIC "-//W3C//DTD SVG 1.1//EN" "http://www.w3.org/Graphics/SVG/1.1/DTD/svg11.dtd">
<svg xmlns="http://www.w3.org/2000/svg" xmlns:xlink="http://www.w3.org/1999/xlink" version="1.1" id="Capa_1" x="0px" y="0px" viewBox="0 0 435.531 435.531" style="enable-background:new 0 0 435.531 435.531;" xml:space="preserve" width="512px" height="512px">
<g>
	<path d="M349.41,238.278l50.526-158.151l-50.526-16.14V31.215H246.84L149.137,0l-9.976,31.215H86.122v166.032L35.595,355.416   l50.527,16.14v32.767h102.576l97.696,31.208l9.974-31.208h53.042V238.278z M381.083,89.851l-31.673,99.14V79.733L381.083,89.851z    M158.859,18.853l38.692,12.362h-42.642L158.859,18.853z M54.448,345.692l31.674-99.151V355.81L54.448,345.692z M276.672,416.679   l-38.679-12.356h42.628L276.672,416.679z M334.41,389.323H101.122V46.215H334.41V389.323z" fill="#19b5fe"/>
	<rect x="129.433" y="78.963" width="178.259" height="15" fill="#19b5fe"/>
	<rect x="129.433" y="116.478" width="178.259" height="15" fill="#19b5fe"/>
	<rect x="129.433" y="153.995" width="178.259" height="15" fill="#19b5fe"/>
	<rect x="129.433" y="229.027" width="178.259" height="15" fill="#19b5fe"/>
	<rect x="127.841" y="304.059" width="178.259" height="15" fill="#19b5fe"/>
	<rect x="127.841" y="266.543" width="178.259" height="15" fill="#19b5fe"/>
	<rect x="127.841" y="191.51" width="178.259" height="15" fill="#19b5fe"/>
	<rect x="129.433" y="341.575" width="178.259" height="15" fill="#19b5fe"/>
</g>
<g>
</g>
<g>
</g>
<g>
</g>
<g>
</g>
<g>
</g>
<g>
</g>
<g>
</g>
<g>
</g>
<g>
</g>
<g>
</g>
<g>
</g>
<g>
</g>
<g>
</g>
<g>
</g>
<g>
</g>
</svg>
